<svg
  xmlns="http://www.w3.org/2000/svg"
  viewBox="0 0 64 64">
  <path
    d="M0 8.562l1.413 9.29 1.455 9.204 1.413 9.246 1.455 9.247 1.413 9.204L8.605 64l9.204-1.456-1.413-9.204-1.456-9.246 9.247-1.413 1.456 9.204 1.413 9.247 9.246-1.413-1.455-9.247-1.413-9.247 9.204-1.412 1.456 9.204 1.412 9.247 9.247-1.413L64 55.395l-1.456-9.247-1.412-9.204-1.456-9.246-1.412-9.247-1.456-9.204L55.395 0l-9.247 1.413-9.204 1.455-9.246 1.413-9.247 1.455L9.247 7.15zm12.072 17.124l9.247-1.456 1.456 9.247-9.247 1.413zm18.494-2.869l9.247-1.455 1.412 9.247-9.246 1.412z"
    fill="#fff" />
</svg>
